<svg width="0" height="0" class="hidden">
  <symbol fill="#000000" version="1.1" id="flim-roll-svgrepo-com" xmlns="http://www.w3.org/2000/svg" xmlns:xlink="http://www.w3.org/1999/xlink" xml:space="preserve" viewBox="0 0 903.114 903.115">
    <g>
      <path d="M349.297,809.269c20.453,0.706,113.194,1.444,221.081-36.29c70.806-24.764,133.674-61.034,186.86-107.805
		c61.7-54.258,110.174-122.573,144.292-203.287c4.398-10.405-0.689-22.391-11.23-26.456l-34.824-13.428
		c-10.029-3.867-21.361,0.869-25.565,10.761c-29.54,69.495-71.1,128.084-123.721,174.357
		c-14.337,12.607-29.523,24.334-45.507,35.158c34.859-55.222,55.039-120.637,55.039-190.768
		c0-197.019-159.213-356.852-355.997-357.855C162.185,92.648,0.338,253.342,0,450.885
		C-0.333,645.952,155.405,804.715,349.297,809.269z M557.517,363.479c48.62,0,88.033,39.414,88.033,88.034
		s-39.414,88.034-88.033,88.034c-48.62,0-88.034-39.414-88.034-88.034S508.896,363.479,557.517,363.479z M357.861,163.826
		c48.62,0,88.034,39.414,88.034,88.034c0,48.62-39.414,88.034-88.034,88.034s-88.034-39.414-88.034-88.034
		C269.827,203.24,309.241,163.826,357.861,163.826z M357.861,563.133c48.62,0,88.034,39.414,88.034,88.034
		s-39.414,88.034-88.034,88.034s-88.034-39.414-88.034-88.034C269.827,602.548,309.241,563.133,357.861,563.133z M70.173,451.513
		c0-48.62,39.414-88.034,88.034-88.034s88.034,39.414,88.034,88.034s-39.414,88.034-88.034,88.034S70.173,500.133,70.173,451.513z"></path>
    </g>
  </symbol>
  <symbol version="1.1" xmlns="http://www.w3.org/2000/svg" xmlns:xlink="http://www.w3.org/1999/xlink" viewBox="0 0 24 24" id="home-3-svgrepo-com">
    <title>home_3_fill</title>
    <g id="页面-1" stroke="none" stroke-width="1" fill="none" fill-rule="evenodd">
      <g id="Building" transform="translate(-96.000000, -48.000000)" fill-rule="nonzero">
        <g id="home_3_fill" transform="translate(96.000000, 48.000000)">
          <path d="M24,0 L24,24 L0,24 L0,0 L24,0 Z M12.5934901,23.257841 L12.5819402,23.2595131 L12.5108777,23.2950439 L12.4918791,23.2987469 L12.4918791,23.2987469 L12.4767152,23.2950439 L12.4056548,23.2595131 C12.3958229,23.2563662 12.3870493,23.2590235 12.3821421,23.2649074 L12.3780323,23.275831 L12.360941,23.7031097 L12.3658947,23.7234994 L12.3769048,23.7357139 L12.4804777,23.8096931 L12.4953491,23.8136134 L12.4953491,23.8136134 L12.5071152,23.8096931 L12.6106902,23.7357139 L12.6232938,23.7196733 L12.6232938,23.7196733 L12.6266527,23.7031097 L12.609561,23.275831 C12.6075724,23.2657013 12.6010112,23.2592993 12.5934901,23.257841 L12.5934901,23.257841 Z M12.8583906,23.1452862 L12.8445485,23.1473072 L12.6598443,23.2396597 L12.6498822,23.2499052 L12.6498822,23.2499052 L12.6471943,23.2611114 L12.6650943,23.6906389 L12.6699349,23.7034178 L12.6699349,23.7034178 L12.678386,23.7104931 L12.8793402,23.8032389 C12.8914285,23.8068999 12.9022333,23.8029875 12.9078286,23.7952264 L12.9118235,23.7811639 L12.8776777,23.1665331 C12.8752882,23.1545897 12.8674102,23.1470016 12.8583906,23.1452862 L12.8583906,23.1452862 Z M12.1430473,23.1473072 C12.1332178,23.1423925 12.1221763,23.1452606 12.1156365,23.1525954 L12.1099173,23.1665331 L12.0757714,23.7811639 C12.0751323,23.7926639 12.0828099,23.8018602 12.0926481,23.8045676 L12.108256,23.8032389 L12.3092106,23.7104931 L12.3186497,23.7024347 L12.3186497,23.7024347 L12.3225043,23.6906389 L12.340401,23.2611114 L12.337245,23.2485176 L12.337245,23.2485176 L12.3277531,23.2396597 L12.1430473,23.1473072 Z" id="MingCute" fill-rule="nonzero"></path>
          <path d="M13.2279,2.68814 C12.5057,2.12641 11.4944,2.12641 10.7722,2.68814 L2.38841,9.20884 C1.63605,9.79401 2.04989,11 3.00297,11 L4.00005,11 L4.00005,19 C4.00005,20.1046 4.89548,21 6.00005,21 L9.99999915,21 L9.99999915,15 C9.99999915,13.8954 10.8954,13 11.9999991,13 C13.1046,13 13.9999991,13.8954 13.9999991,15 L13.9999991,21 L18.0001,21 C19.1046,21 20.0001,20.1046 20.0001,19 L20.0001,11 L20.9971,11 C21.9492,11 22.3648,9.79463 21.6117,9.20884 L13.2279,2.68814 Z" id="路径" fill="#09244B"></path>
        </g>
      </g>
    </g>
  </symbol>
  <symbol fill="none" xmlns="http://www.w3.org/2000/svg" viewBox="0 0 24 24" id="plus-svgrepo-com">
    <path d="M6 12H18M12 6V18" stroke="#000000" stroke-width="2" stroke-linecap="round" stroke-linejoin="round"></path>
  </symbol>
  <symbol fill="none" xmlns="http://www.w3.org/2000/svg" viewBox="0 0 24 24" id="search-svgrepo-com">
    <path d="M15.7955 15.8111L21 21M18 10.5C18 14.6421 14.6421 18 10.5 18C6.35786 18 3 14.6421 3 10.5C3 6.35786 6.35786 3 10.5 3C14.6421 3 18 6.35786 18 10.5Z" stroke="#000000" stroke-width="2" stroke-linecap="round" stroke-linejoin="round"></path>
  </symbol>
  <symbol fill="none" xmlns="http://www.w3.org/2000/svg" viewBox="0 0 24 24" id="star-svgrepo-com">
    <path d="M9.15316 5.40838C10.4198 3.13613 11.0531 2 12 2C12.9469 2 13.5802 3.13612 14.8468 5.40837L15.1745 5.99623C15.5345 6.64193 15.7144 6.96479 15.9951 7.17781C16.2757 7.39083 16.6251 7.4699 17.3241 7.62805L17.9605 7.77203C20.4201 8.32856 21.65 8.60682 21.9426 9.54773C22.2352 10.4886 21.3968 11.4691 19.7199 13.4299L19.2861 13.9372C18.8096 14.4944 18.5713 14.773 18.4641 15.1177C18.357 15.4624 18.393 15.8341 18.465 16.5776L18.5306 17.2544C18.7841 19.8706 18.9109 21.1787 18.1449 21.7602C17.3788 22.3417 16.2273 21.8115 13.9243 20.7512L13.3285 20.4768C12.6741 20.1755 12.3469 20.0248 12 20.0248C11.6531 20.0248 11.3259 20.1755 10.6715 20.4768L10.0757 20.7512C7.77268 21.8115 6.62118 22.3417 5.85515 21.7602C5.08912 21.1787 5.21588 19.8706 5.4694 17.2544L5.53498 16.5776C5.60703 15.8341 5.64305 15.4624 5.53586 15.1177C5.42868 14.773 5.19043 14.4944 4.71392 13.9372L4.2801 13.4299C2.60325 11.4691 1.76482 10.4886 2.05742 9.54773C2.35002 8.60682 3.57986 8.32856 6.03954 7.77203L6.67589 7.62805C7.37485 7.4699 7.72433 7.39083 8.00494 7.17781C8.28555 6.96479 8.46553 6.64194 8.82547 5.99623L9.15316 5.40838Z" fill="#1C274C"></path>
  </symbol>
  <symbol version="1.1" xmlns="http://www.w3.org/2000/svg" xmlns:xlink="http://www.w3.org/1999/xlink" viewBox="0 0 24 24" id="tv-2-svgrepo-com">
    <title>tv_2_fill</title>
    <g id="页面-1" stroke="none" stroke-width="1" fill="none" fill-rule="evenodd">
      <g id="Device" transform="translate(-768.000000, -48.000000)" fill-rule="nonzero">
        <g id="tv_2_fill" transform="translate(768.000000, 48.000000)">
          <path d="M24,0 L24,24 L0,24 L0,0 L24,0 Z M12.5934901,23.257841 L12.5819402,23.2595131 L12.5108777,23.2950439 L12.4918791,23.2987469 L12.4918791,23.2987469 L12.4767152,23.2950439 L12.4056548,23.2595131 C12.3958229,23.2563662 12.3870493,23.2590235 12.3821421,23.2649074 L12.3780323,23.275831 L12.360941,23.7031097 L12.3658947,23.7234994 L12.3769048,23.7357139 L12.4804777,23.8096931 L12.4953491,23.8136134 L12.4953491,23.8136134 L12.5071152,23.8096931 L12.6106902,23.7357139 L12.6232938,23.7196733 L12.6232938,23.7196733 L12.6266527,23.7031097 L12.609561,23.275831 C12.6075724,23.2657013 12.6010112,23.2592993 12.5934901,23.257841 L12.5934901,23.257841 Z M12.8583906,23.1452862 L12.8445485,23.1473072 L12.6598443,23.2396597 L12.6498822,23.2499052 L12.6498822,23.2499052 L12.6471943,23.2611114 L12.6650943,23.6906389 L12.6699349,23.7034178 L12.6699349,23.7034178 L12.678386,23.7104931 L12.8793402,23.8032389 C12.8914285,23.8068999 12.9022333,23.8029875 12.9078286,23.7952264 L12.9118235,23.7811639 L12.8776777,23.1665331 C12.8752882,23.1545897 12.8674102,23.1470016 12.8583906,23.1452862 L12.8583906,23.1452862 Z M12.1430473,23.1473072 C12.1332178,23.1423925 12.1221763,23.1452606 12.1156365,23.1525954 L12.1099173,23.1665331 L12.0757714,23.7811639 C12.0751323,23.7926639 12.0828099,23.8018602 12.0926481,23.8045676 L12.108256,23.8032389 L12.3092106,23.7104931 L12.3186497,23.7024347 L12.3186497,23.7024347 L12.3225043,23.6906389 L12.340401,23.2611114 L12.337245,23.2485176 L12.337245,23.2485176 L12.3277531,23.2396597 L12.1430473,23.1473072 Z" id="MingCute" fill-rule="nonzero"></path>
          <path d="M16.9497,4.00691 C17.3402,3.61639 17.3402,2.98322 16.9497,2.5927 C16.5591,2.20217 15.926,2.20217 15.5355,2.5927 L11.6464,6.48179 C11.4511,6.67705 11.1345,6.67705 10.9393,6.48179 L8.46439,4.00691 C8.07387,3.61639 7.4407,3.61639 7.05018,4.00691 C6.65965,4.39744 6.65965,5.0306 7.05018,5.42113 L8.46439,6.83534 C8.52138,6.89233 8.57967,6.94725 8.63915,7.00008 L5,7.00008 C3.89543,7.00008 3,7.89551 3,9.00008 L3,19.0001 C3,20.1047 3.89543,21.0001 5,21.0001 L19,21.0001 C20.1046,21.0001 21,20.1047 21,19.0001 L21,9.00008 C21,7.89551 20.1046,7.00008 19,7.00008 L13.9465,7.00008 C14.006,6.94725 14.0643,6.89233 14.1212,6.83534 L16.9497,4.00691 Z" id="路径" fill="#09244B"></path>
        </g>
      </g>
    </g>
  </symbol>
</svg>